<svg xmlns="http://www.w3.org/2000/svg" viewBox="0 0 144 144">
  <path d="M122.6 71.9c-.1-1.3-1.2-2.4-2.5-2.4h-6.3c-1.3 0-2.4 1.1-2.5 2.4-.1 1.3.9 2.5 2.2 2.6h6.3c1.3 0 2.4-1.1 2.5-2.4.1-.1.1-.1.1-.2z" fill="#000"/>
  <path d="M103.1 71.9c0-1.3-1.1-2.4-2.4-2.4H71.9c-1.3 0-2.4 1.1-2.4 2.4 0 1.3 1.1 2.4 2.4 2.4h28.8c1.3 0 2.4-1.1 2.4-2.4z" fill="#000"/>
  <path d="M71.9 21.4c-27.8 0-50.5 22.7-50.5 50.5s22.7 50.5 50.5 50.5 50.5-22.7 50.5-50.5-22.7-50.5-50.5-50.5zm0 96c-25.1 0-45.5-20.4-45.5-45.5s20.4-45.5 45.5-45.5 45.5 20.4 45.5 45.5-20.4 45.5-45.5 45.5z" fill="#000"/>
</svg> 